<?xml version="1.0" encoding="utf-8"?>
<!-- Quadcopter icon by Arthur Shlain from Usefulicons.com -->
<svg xmlns="http://www.w3.org/2000/svg" xmlns:xlink="http://www.w3.org/1999/xlink" xml:space="preserve" version="1.1" x="0px" y="0px" viewBox="0 0 100 100" width="400px" height="400px"><path d="M83.518,50C90.55,45.622,95,37.865,95,29.34C95,15.919,84.081,5,70.66,5C62.135,5,54.378,9.45,50,16.482C45.622,9.45,37.865,5,29.34,5C15.919,5,5,15.919,5,29.34C5,37.865,9.45,45.622,16.482,50C9.45,54.378,5,62.135,5,70.66C5,84.081,15.919,95,29.34,95C37.865,95,45.622,90.55,50,83.518C54.378,90.55,62.135,95,70.66,95C84.081,95,95,84.081,95,70.66C95,62.135,90.55,54.378,83.518,50ZM29.34,90C18.676,90,10,81.324,10,70.66C10,70.129,10.023,69.602,10.066,69.079C11.147,59.722,19.108,52.431,28.75,52.431C32.97,52.431,36.857,53.844,40,56.2L40,58.233L32.41,65.823C32.349,65.657,32.265,65.498,32.134,65.367L24.634,57.867C24.254,57.486,23.672,57.391,23.191,57.633L18.191,60.133C17.832,60.313,17.581,60.654,17.516,61.051S17.582,61.851,17.866,62.135L27.229,71.498L25.132,75.692C24.891,76.173,24.986,76.755,25.366,77.135L32.866,84.635C33.106,84.875,33.426,85.001,33.75,85.001C33.939,85.001,34.131,84.958,34.309,84.869L39.309,82.369C39.668,82.189,39.919,81.848,39.984,81.451S39.918,80.651,39.634,80.367L30.518,71.251L40.794,60.975L45.09,71.715C45.092,71.719,45.095,71.722,45.097,71.726C45.106,71.747,45.122,71.764,45.132,71.785C45.186,71.899,45.255,72.001,45.338,72.091C45.369,72.124,45.402,72.151,45.436,72.181C45.515,72.25,45.6,72.308,45.694,72.355C45.734,72.375,45.771,72.397,45.814,72.413C45.952,72.465,46.098,72.501,46.251,72.501L47.507,72.501C46.907,81.571,39.869,88.901,30.922,89.935C30.398,89.977,29.871,90,29.34,90ZM10,29.34C10,18.676,18.676,10,29.34,10C29.871,10,30.398,10.023,30.921,10.066C39.868,11.1,46.906,18.43,47.506,27.5L46.25,27.5C46.096,27.5,45.951,27.536,45.813,27.588C45.77,27.604,45.733,27.625,45.693,27.646C45.599,27.693,45.514,27.751,45.435,27.82C45.401,27.85,45.368,27.877,45.337,27.91C45.254,28,45.185,28.102,45.131,28.216C45.121,28.237,45.105,28.253,45.096,28.275C45.094,28.279,45.091,28.282,45.089,28.286L40.793,39.026L30.518,28.75L39.634,19.634C39.918,19.35,40.049,18.946,39.984,18.55S39.669,17.812,39.309,17.632L34.309,15.132C33.827,14.89,33.246,14.985,32.866,15.366L25.366,22.866C24.986,23.246,24.891,23.827,25.132,24.309L27.229,28.503L17.866,37.866C17.582,38.15,17.451,38.554,17.516,38.95S17.831,39.688,18.191,39.868L23.191,42.368C23.369,42.457,23.56,42.5,23.75,42.5C24.074,42.5,24.395,42.374,24.634,42.134L32.134,34.634C32.265,34.503,32.349,34.344,32.41,34.178L40,41.768L40,43.801C36.857,46.156,32.97,47.57,28.75,47.57C19.108,47.57,11.147,40.278,10.066,30.922C10.023,30.398,10,29.871,10,29.34ZM70.66,10C81.324,10,90,18.676,90,29.34C90,29.871,89.977,30.398,89.934,30.921C88.853,40.278,80.892,47.569,71.25,47.569C67.03,47.569,63.143,46.156,60,43.8L60,41.767L67.59,34.177C67.651,34.343,67.735,34.502,67.866,34.633L75.366,42.133C75.606,42.373,75.926,42.499,76.25,42.499C76.439,42.499,76.631,42.456,76.809,42.367L81.809,39.867C82.168,39.687,82.419,39.346,82.484,38.949S82.418,38.149,82.134,37.865L72.771,28.502L74.868,24.308C75.109,23.827,75.014,23.245,74.634,22.865L67.134,15.365C66.754,14.984,66.173,14.889,65.691,15.131L60.691,17.631C60.332,17.811,60.081,18.152,60.016,18.549S60.082,19.349,60.366,19.633L69.482,28.749L59.207,39.026L54.911,28.286C54.909,28.282,54.906,28.279,54.904,28.275C54.895,28.254,54.879,28.237,54.869,28.216C54.815,28.102,54.746,28,54.663,27.91C54.632,27.877,54.599,27.85,54.565,27.82C54.486,27.751,54.401,27.693,54.307,27.646C54.267,27.626,54.23,27.604,54.187,27.588C54.049,27.536,53.903,27.5,53.75,27.5L52.494,27.5C53.094,18.43,60.132,11.1,69.079,10.066C69.602,10.023,70.129,10,70.66,10ZM57.5,58.509L55,64.759L55,35.241L57.5,41.491L57.5,58.509ZM47.5,70L47.5,30L52.5,30L52.5,70L47.5,70ZM42.5,58.509L42.5,41.491L45,35.241L45,64.76L42.5,58.509ZM40,53.174C37.095,51.359,33.731,50.231,30.118,50C33.731,49.769,37.095,48.64,40,46.826L40,53.174ZM60,46.826C62.905,48.641,66.269,49.769,69.882,50C66.269,50.231,62.905,51.36,60,53.174L60,46.826ZM71.592,30.86L79.139,38.407L76.496,39.728L70.27,33.502L71.592,30.86ZM70.908,26.64L63.361,19.093L66.004,17.772L72.23,23.998L70.908,26.64ZM29.729,33.503L23.503,39.729L20.86,38.408L28.407,30.861L29.729,33.503ZM27.771,23.997L33.997,17.771L36.64,19.092L29.093,26.639L27.771,23.997ZM28.408,69.14L20.861,61.593L23.504,60.272L29.73,66.498L28.408,69.14ZM29.092,73.36L36.639,80.907L33.996,82.228L27.77,76.002L29.092,73.36ZM52.494,72.5L53.75,72.5C53.904,72.5,54.049,72.464,54.187,72.412C54.23,72.396,54.267,72.375,54.307,72.354C54.401,72.307,54.486,72.249,54.565,72.18C54.599,72.15,54.632,72.123,54.663,72.09C54.746,72,54.815,71.898,54.869,71.784C54.879,71.763,54.895,71.747,54.904,71.725C54.906,71.721,54.909,71.718,54.911,71.714L59.207,60.974L69.482,71.25L60.366,80.366C60.082,80.65,59.951,81.054,60.016,81.45S60.331,82.188,60.691,82.368L65.691,84.868C65.869,84.957,66.06,85,66.25,85C66.574,85,66.895,84.874,67.134,84.634L74.634,77.134C75.014,76.754,75.109,76.173,74.868,75.691L72.771,71.497L82.134,62.134C82.418,61.85,82.549,61.446,82.484,61.05S82.169,60.312,81.809,60.132L76.809,57.632C76.327,57.39,75.745,57.485,75.366,57.866L67.866,65.366C67.735,65.497,67.651,65.656,67.59,65.822L60,58.232L60,56.199C63.143,53.844,67.03,52.43,71.25,52.43C80.892,52.43,88.852,59.722,89.934,69.078C89.977,69.602,90,70.129,90,70.66C90,81.324,81.324,90,70.66,90C70.129,90,69.602,89.977,69.079,89.934C60.132,88.9,53.094,81.57,52.494,72.5ZM70.271,66.497L76.497,60.271L79.14,61.592L71.593,69.139L70.271,66.497ZM72.229,76.003L66.003,82.229L63.36,80.908L70.907,73.361L72.229,76.003Z" stroke="none"></path></svg>