<svg width="17" height="21" viewBox="0 0 17 21" fill="none" xmlns="http://www.w3.org/2000/svg">
<path d="M17 2.625V3.675C17 3.96495 16.7621 4.2 16.4688 4.2H0.53125C0.237849 4.2 0 3.96495 0 3.675V2.625C0 2.33505 0.237849 2.1 0.53125 2.1H5.3125V1.05C5.3125 0.470101 5.7882 0 6.375 0H10.625C11.2118 0 11.6875 0.470101 11.6875 1.05V2.1H16.4688C16.7621 2.1 17 2.33505 17 2.625ZM1.98687 19.047C2.06512 20.149 2.99399 21.0027 4.11188 21H12.9094C14.0273 21.0027 14.9561 20.149 15.0344 19.047L15.9375 6.3H1.0625L1.98687 19.047Z" />
</svg>
