<svg width="29" height="20" viewBox="0 0 29 20" fill="none" xmlns="http://www.w3.org/2000/svg">
<path d="M3.74361 16.7547H25.6048C25.9527 16.7547 26.2332 16.4728 26.2332 16.1263V0.628376C26.2332 0.280445 25.9512 0 25.6048 0H3.74361C3.39568 0 3.11523 0.281945 3.11523 0.628376V16.1248C3.11523 16.4728 3.39568 16.7547 3.74361 16.7547ZM4.37199 1.25825H24.9749V15.4979H4.37199V1.25825Z" />
<path d="M27.6668 18.5004H1.51499C1.10107 18.5004 0.765137 18.8363 0.765137 19.2502C0.765137 19.6641 1.10107 20.0001 1.51499 20.0001H27.6668C28.0808 20.0001 28.4167 19.6641 28.4167 19.2502C28.4167 18.8363 28.0808 18.5004 27.6668 18.5004Z" />
</svg>
