<svg id="eGrZUi7STb31" xmlns="http://www.w3.org/2000/svg" xmlns:xlink="http://www.w3.org/1999/xlink" viewBox="0 0 100 100" shape-rendering="geometricPrecision" text-rendering="geometricPrecision"><path d="M83.518,50C90.55,45.622,95,37.865,95,29.34C95,15.919,84.081,5,70.66,5C62.135,5,54.378,9.45,50,16.482C45.622,9.45,37.865,5,29.34,5C15.919,5,5,15.919,5,29.34C5,37.865,9.45,45.622,16.482,50C9.45,54.378,5,62.135,5,70.66C5,84.081,15.919,95,29.34,95C37.865,95,45.622,90.55,50,83.518C54.378,90.55,62.135,95,70.66,95C84.081,95,95,84.081,95,70.66C95,62.135,90.55,54.378,83.518,50ZM29.34,90C18.676,90,10,81.324,10,70.66c0-.531.023-1.058.066-1.581c1.081-9.357,9.042-16.648,18.684-16.648c4.22,0,8.107,1.413,11.25,3.769v2.033l-7.59,7.59c-.061-.166-.145-.325-.276-.456l-7.5-7.5c-.38-.381-.962-.476-1.443-.234l-5,2.5c-.359.18-.61.521-.675.918s.066.8.35,1.084l9.363,9.363-2.097,4.194c-.241.481-.146,1.063.234,1.443l7.5,7.5c.24.24.56.366.884.366.189,0,.381-.043.559-.132l5-2.5c.359-.18.61-.521.675-.918s-.066-.8-.35-1.084l-9.116-9.116L40.794,60.975l4.296,10.74c.002.004.005.007.007.011.009.021.025.038.035.059.054.114.123.216.206.306.031.033.064.06.098.09.079.069.164.127.258.174.04.02.077.042.12.058.138.052.284.088.437.088h1.256c-.6,9.07-7.638,16.4-16.585,17.434-.524.042-1.051.065-1.582.065ZM10,29.34C10,18.676,18.676,10,29.34,10c.531,0,1.058.023,1.581.066C39.868,11.1,46.906,18.43,47.506,27.5h-1.256c-.154,0-.299.036-.437.088-.043.016-.08.037-.12.058-.094.047-.179.105-.258.174-.034.03-.067.057-.098.09-.083.09-.152.192-.206.306-.01.021-.026.037-.035.059-.002.004-.005.007-.007.011l-4.296,10.74L30.518,28.75l9.116-9.116c.284-.284.415-.688.35-1.084s-.315-.738-.675-.918l-5-2.5c-.482-.242-1.063-.147-1.443.234l-7.5,7.5c-.38.38-.475.961-.234,1.443l2.097,4.194-9.363,9.363c-.284.284-.415.688-.35,1.084s.315.738.675.918l5,2.5c.178.089.369.132.559.132.324,0,.645-.126.884-.366l7.5-7.5c.131-.131.215-.29.276-.456L40,41.768v2.033c-3.143,2.355-7.03,3.769-11.25,3.769-9.642,0-17.603-7.292-18.684-16.648-.043-.524-.066-1.051-.066-1.582ZM70.66,10C81.324,10,90,18.676,90,29.34c0,.531-.023,1.058-.066,1.581-1.081,9.357-9.042,16.648-18.684,16.648-4.22,0-8.107-1.413-11.25-3.769v-2.033l7.59-7.59c.061.166.145.325.276.456l7.5,7.5c.24.24.56.366.884.366.189,0,.381-.043.559-.132l5-2.5c.359-.18.61-.521.675-.918s-.066-.8-.35-1.084l-9.363-9.363l2.097-4.194c.241-.481.146-1.063-.234-1.443l-7.5-7.5c-.38-.381-.961-.476-1.443-.234l-5,2.5c-.359.18-.61.521-.675.918s.066.8.35,1.084l9.116,9.116L59.207,39.026l-4.296-10.74c-.002-.004-.005-.007-.007-.011-.009-.021-.025-.038-.035-.059-.054-.114-.123-.216-.206-.306-.031-.033-.064-.06-.098-.09-.079-.069-.164-.127-.258-.174-.04-.02-.077-.042-.12-.058-.138-.052-.284-.088-.437-.088h-1.256c.6-9.07,7.638-16.4,16.585-17.434.523-.043,1.05-.066,1.581-.066ZM57.5,58.509L55,64.759v-29.518l2.5,6.25v17.018ZM47.5,70v-40h5v40h-5Zm-5-11.491v-17.018l2.5-6.25v29.519l-2.5-6.251ZM40,53.174c-2.905-1.815-6.269-2.943-9.882-3.174c3.613-.231,6.977-1.36,9.882-3.174v6.348Zm20-6.348c2.905,1.815,6.269,2.943,9.882,3.174-3.613.231-6.977,1.36-9.882,3.174v-6.348ZM71.592,30.86l7.547,7.547-2.643,1.321-6.226-6.226l1.322-2.642Zm-.684-4.22l-7.547-7.547l2.643-1.321l6.226,6.226-1.322,2.642ZM29.729,33.503l-6.226,6.226-2.643-1.321l7.547-7.547l1.322,2.642Zm-1.958-9.506l6.226-6.226l2.643,1.321-7.547,7.547-1.322-2.642Zm.637,45.143l-7.547-7.547l2.643-1.321l6.226,6.226-1.322,2.642Zm.684,4.22l7.547,7.547-2.643,1.321-6.226-6.226l1.322-2.642Zm23.402-.86h1.256c.154,0,.299-.036.437-.088.043-.016.08-.037.12-.058.094-.047.179-.105.258-.174.034-.03.067-.057.098-.09.083-.09.152-.192.206-.306.01-.021.026-.037.035-.059.002-.004.005-.007.007-.011l4.296-10.74L69.482,71.25l-9.116,9.116c-.284.284-.415.688-.35,1.084s.315.738.675.918l5,2.5c.178.089.369.132.559.132.324,0,.645-.126.884-.366l7.5-7.5c.38-.38.475-.961.234-1.443l-2.097-4.194l9.363-9.363c.284-.284.415-.688.35-1.084s-.315-.738-.675-.918l-5-2.5c-.482-.242-1.064-.147-1.443.234l-7.5,7.5c-.131.131-.215.29-.276.456L60,58.232v-2.033c3.143-2.355,7.03-3.769,11.25-3.769c9.642,0,17.602,7.292,18.684,16.648.043.524.066,1.051.066,1.582C90,81.324,81.324,90,70.66,90c-.531,0-1.058-.023-1.581-.066C60.132,88.9,53.094,81.57,52.494,72.5Zm17.777-6.003l6.226-6.226l2.643,1.321-7.547,7.547-1.322-2.642Zm1.958,9.506l-6.226,6.226-2.643-1.321l7.547-7.547l1.322,2.642Z" transform="matrix(1.111111 0 0 1.111111-5.55555-5.55555)"/></svg>
