<svg width="23" height="23" viewBox="0 0 23 23" fill="none" xmlns="http://www.w3.org/2000/svg">
<mask id="path-1-inside-1">
<path d="M11.1705 20.8728C5.93123 20.8728 1.68052 16.6746 1.68052 11.5C1.68052 6.32544 5.93123 2.12722 11.1705 2.12722C14.6304 2.12722 17.7937 4.01479 19.4742 6.94379L16.7393 6.26035L16.3438 7.85503L21.6819 9.1568L23 3.88461L21.3854 3.49408L20.7593 5.93491C18.7822 2.61538 15.1246 0.5 11.1375 0.5C4.97565 0.5 0 5.44674 0 11.5C0 17.5858 5.0086 22.5 11.1375 22.5C16.3438 22.5 20.9241 18.855 22.0444 13.8432L20.4298 13.4852C19.5072 17.7811 15.6189 20.8728 11.1705 20.8728Z"/>
</mask>
<path d="M11.1705 20.8728C5.93123 20.8728 1.68052 16.6746 1.68052 11.5C1.68052 6.32544 5.93123 2.12722 11.1705 2.12722C14.6304 2.12722 17.7937 4.01479 19.4742 6.94379L16.7393 6.26035L16.3438 7.85503L21.6819 9.1568L23 3.88461L21.3854 3.49408L20.7593 5.93491C18.7822 2.61538 15.1246 0.5 11.1375 0.5C4.97565 0.5 0 5.44674 0 11.5C0 17.5858 5.0086 22.5 11.1375 22.5C16.3438 22.5 20.9241 18.855 22.0444 13.8432L20.4298 13.4852C19.5072 17.7811 15.6189 20.8728 11.1705 20.8728Z"/>
</svg>
