<svg width="21" height="21" viewBox="0 0 21 21" fill="none" xmlns="http://www.w3.org/2000/svg">
<path d="M19.9043 15.9098L21 13.2292L19.7624 12.1219C19.2907 11.6994 19.019 11.0964 19.0153 10.4631C19.0153 10.4625 19.0153 10.4625 19.0153 10.4625C19.0121 9.82697 19.2788 9.22117 19.748 8.79343L20.9751 7.67611L19.8546 5.00534L18.1979 5.09771C17.5642 5.1327 16.9438 4.89767 16.4934 4.45065C16.4934 4.45065 16.4926 4.45065 16.4926 4.45003C16.0431 4.00448 15.8032 3.38821 15.8323 2.75477L15.91 1.09596L13.229 0L12.1222 1.23777C11.6996 1.7095 11.0964 1.98119 10.4629 1.98454C10.4629 1.98454 10.4625 1.98454 10.4617 1.98454C9.82801 1.98789 9.22159 1.72123 8.79406 1.25222L7.6759 0.0251367L5.00513 1.14518L5.09792 2.80232C5.13228 3.43618 4.89725 4.05622 4.45024 4.50658C4.45024 4.50658 4.45024 4.50721 4.44982 4.50721C4.00427 4.95716 3.388 5.19679 2.75435 5.16747L1.09533 5.08996L0 7.77058L1.23777 8.87785C1.7095 9.30035 1.98119 9.90342 1.98475 10.5367V10.5373C1.98768 11.1726 1.72123 11.7788 1.25201 12.2064L0.0247177 13.3239L1.14539 15.9949L2.80169 15.9021C3.43618 15.8677 4.05622 16.1028 4.50679 16.5498C4.50721 16.5498 4.50721 16.5498 4.50721 16.55C4.95695 16.9962 5.19638 17.612 5.16747 18.2452L5.08975 19.904L7.77037 21L8.87135 19.7706C9.29721 19.2938 9.90531 19.0192 10.5446 19.0157C10.5452 19.0157 10.5455 19.0157 10.5455 19.0157C11.1747 19.0119 11.7753 19.2752 12.1988 19.7409L13.3243 20.9755L15.9949 19.8548L15.9021 18.1966C15.8677 17.5634 16.1023 16.944 16.5487 16.4945C16.5487 16.4938 16.5493 16.4938 16.5493 16.4938C16.9951 16.0435 17.6124 15.8034 18.2459 15.833L19.9043 15.9098ZM9.00772 14.1503C6.99155 13.3252 6.02547 11.0228 6.84995 9.00772C7.67401 6.99155 9.97653 6.02568 11.9927 6.85058C14.0084 7.67401 14.9737 9.97695 14.1494 11.9921C13.3252 14.008 11.0231 14.9735 9.00772 14.1503Z" />
</svg>
