<svg width="25" height="17" viewBox="0 0 25 17" fill="none" xmlns="http://www.w3.org/2000/svg">
<path d="M14.7727 0C18.5611 0 21.2782 3.14843 21.3246 6.52552C23.4587 7.24757 25 9.2552 25 11.6167C25 14.5797 22.5732 17 19.6023 17H5.68182C2.42028 17 0 14.7248 0 11.9C0 9.73777 1.37168 7.64689 3.48898 6.97708C3.68287 5.35089 4.51815 4.06446 5.67295 3.37344C6.77065 2.71657 8.09375 2.58675 9.32173 2.95729C10.4196 1.29593 12.3234 0 14.7727 0ZM14.7727 1.7C12.6768 1.7 11.1409 2.9145 10.4226 4.3474C10.32 4.54804 10.1418 4.69989 9.92709 4.76961C9.71237 4.83933 9.47868 4.82123 9.27733 4.71927C8.40778 4.28565 7.35991 4.34551 6.54295 4.83437C5.72602 5.32324 5.11364 6.20972 5.11364 7.65C5.11225 7.84987 5.04029 8.04286 4.9104 8.19507C4.78052 8.34728 4.60101 8.44897 4.40341 8.48229C2.85057 8.74214 1.70455 10.3255 1.70455 11.9C1.70455 13.7954 3.16568 15.3 5.68182 15.3H19.6023C21.652 15.3 23.2955 13.661 23.2955 11.6167C23.2955 9.81818 22.0153 8.32699 20.3214 7.9953C20.1112 7.95637 19.9234 7.84011 19.7951 7.66956C19.6669 7.499 19.6075 7.2866 19.6289 7.07448C19.8977 4.43448 17.8095 1.7 14.7727 1.7Z" />
</svg>
