<svg width="27" height="23" viewBox="0 0 27 23" fill="none" xmlns="http://www.w3.org/2000/svg">
<g opacity="0.5">
<mask id="path-1-inside-1">
<path d="M23.6282 19.61C23.6282 20.6778 22.6684 21.5783 21.4874 21.5783H4.35702C3.17603 21.5783 2.21622 20.6778 2.21622 19.61V4.12184C2.21622 3.05407 3.17603 2.21779 4.35702 2.21779H14.3492V0.928223H4.35702C2.38915 0.928223 0.788574 2.34384 0.788574 4.12306V19.61C0.788574 21.3892 2.38915 22.8679 4.35702 22.8679H21.4861C23.454 22.8679 25.0545 21.388 25.0545 19.61V10.6073H23.6269V19.61H23.6282Z"/>
</mask>
<path d="M23.6282 19.61C23.6282 20.6778 22.6684 21.5783 21.4874 21.5783H4.35702C3.17603 21.5783 2.21622 20.6778 2.21622 19.61V4.12184C2.21622 3.05407 3.17603 2.21779 4.35702 2.21779H14.3492V0.928223H4.35702C2.38915 0.928223 0.788574 2.34384 0.788574 4.12306V19.61C0.788574 21.3892 2.38915 22.8679 4.35702 22.8679H21.4861C23.454 22.8679 25.0545 21.388 25.0545 19.61V10.6073H23.6269V19.61H23.6282Z"/>
<path d="M23.6282 19.61H25.6282V17.61H23.6282V19.61ZM14.3492 2.21779V4.21779H16.3492V2.21779H14.3492ZM14.3492 0.928223H16.3492V-1.07178H14.3492V0.928223ZM25.0545 10.6073H27.0545V8.60726H25.0545V10.6073ZM23.6269 10.6073V8.60726H21.6269V10.6073H23.6269ZM23.6269 19.61H21.6269V21.61H23.6269V19.61ZM21.6282 19.61C21.6282 19.5738 21.637 19.5449 21.6444 19.5288C21.6509 19.5147 21.6534 19.5164 21.6424 19.5265C21.6186 19.5485 21.5664 19.5783 21.4874 19.5783V23.5783C23.6238 23.5783 25.6282 21.9258 25.6282 19.61H21.6282ZM21.4874 19.5783H4.35702V23.5783H21.4874V19.5783ZM4.35702 19.5783C4.27803 19.5783 4.22581 19.5485 4.20202 19.5265C4.19104 19.5164 4.19355 19.5147 4.20007 19.5288C4.20749 19.5449 4.21622 19.5738 4.21622 19.61H0.21622C0.21622 21.9258 2.22063 23.5783 4.35702 23.5783V19.5783ZM4.21622 19.61V4.12184H0.21622V19.61H4.21622ZM4.21622 4.12184C4.21622 4.1595 4.20677 4.19917 4.1916 4.23115C4.17761 4.26062 4.16512 4.27073 4.16822 4.268C4.1768 4.26041 4.23617 4.21779 4.35702 4.21779V0.217791C2.31078 0.217791 0.21622 1.72449 0.21622 4.12184H4.21622ZM4.35702 4.21779H14.3492V0.217791H4.35702V4.21779ZM16.3492 2.21779V0.928223H12.3492V2.21779H16.3492ZM14.3492 -1.07178H4.35702V2.92822H14.3492V-1.07178ZM4.35702 -1.07178C1.50576 -1.07178 -1.21143 1.03036 -1.21143 4.12306H2.78857C2.78857 3.65732 3.27253 2.92822 4.35702 2.92822V-1.07178ZM-1.21143 4.12306V19.61H2.78857V4.12306H-1.21143ZM-1.21143 19.61C-1.21143 22.6547 1.45268 24.8679 4.35702 24.8679V20.8679C3.32561 20.8679 2.78857 20.1237 2.78857 19.61H-1.21143ZM4.35702 24.8679H21.4861V20.8679H4.35702V24.8679ZM21.4861 24.8679C24.3909 24.8679 27.0545 22.653 27.0545 19.61H23.0545C23.0545 20.123 22.517 20.8679 21.4861 20.8679V24.8679ZM27.0545 19.61V10.6073H23.0545V19.61H27.0545ZM25.0545 8.60726H23.6269V12.6073H25.0545V8.60726ZM21.6269 10.6073V19.61H25.6269V10.6073H21.6269ZM23.6269 21.61H23.6282V17.61H23.6269V21.61Z" mask="url(#path-1-inside-1)"/>
<mask id="path-3-inside-2">
<path d="M25.2367 0.731745C24.1589 -0.243915 22.2782 -0.243915 21.1991 0.731745L11.6238 9.38907C11.5327 9.47148 11.467 9.57571 11.4361 9.68843L10.4281 13.3378C10.3678 13.5571 10.4388 13.7898 10.6157 13.951C10.7511 14.0734 10.9334 14.1401 11.1198 14.1401C11.1774 14.1401 11.2351 14.134 11.2927 14.1207L15.3303 13.2081C15.4563 13.1802 15.5703 13.1208 15.6614 13.0384L25.2367 4.38108C25.7756 3.89386 26.0732 3.24543 26.0732 2.55581C26.0732 1.86618 25.7769 1.21897 25.2367 0.731745ZM14.7928 11.9997L12.101 12.6081L12.774 10.1744L20.6951 3.01273L22.7139 4.838L14.7928 11.9997ZM24.2273 3.46844L23.7233 3.92415L21.7045 2.09888L22.2085 1.64317C22.7474 1.15595 23.6884 1.15595 24.2273 1.64317C24.4968 1.88678 24.6456 2.21039 24.6456 2.55581C24.6456 2.90123 24.4968 3.22483 24.2273 3.46844Z"/>
</mask>
<path d="M25.2367 0.731745C24.1589 -0.243915 22.2782 -0.243915 21.1991 0.731745L11.6238 9.38907C11.5327 9.47148 11.467 9.57571 11.4361 9.68843L10.4281 13.3378C10.3678 13.5571 10.4388 13.7898 10.6157 13.951C10.7511 14.0734 10.9334 14.1401 11.1198 14.1401C11.1774 14.1401 11.2351 14.134 11.2927 14.1207L15.3303 13.2081C15.4563 13.1802 15.5703 13.1208 15.6614 13.0384L25.2367 4.38108C25.7756 3.89386 26.0732 3.24543 26.0732 2.55581C26.0732 1.86618 25.7769 1.21897 25.2367 0.731745ZM14.7928 11.9997L12.101 12.6081L12.774 10.1744L20.6951 3.01273L22.7139 4.838L14.7928 11.9997ZM24.2273 3.46844L23.7233 3.92415L21.7045 2.09888L22.2085 1.64317C22.7474 1.15595 23.6884 1.15595 24.2273 1.64317C24.4968 1.88678 24.6456 2.21039 24.6456 2.55581C24.6456 2.90123 24.4968 3.22483 24.2273 3.46844Z"/>
<path d="M25.2367 0.731745L23.8945 2.21445L23.8972 2.21694L25.2367 0.731745ZM21.1991 0.731745L19.8578 -0.751791L21.1991 0.731745ZM11.6238 9.38907L12.9651 10.8726L11.6238 9.38907ZM11.4361 9.68843L13.3639 10.221L13.3653 10.2161L11.4361 9.68843ZM10.4281 13.3378L8.50027 12.8052L8.49966 12.8075L10.4281 13.3378ZM10.6157 13.951L9.26886 15.4295L9.27443 15.4346L10.6157 13.951ZM11.2927 14.1207L10.8518 12.1699L10.842 12.1722L11.2927 14.1207ZM15.3303 13.2081L14.8983 11.2553L14.8894 11.2573L15.3303 13.2081ZM15.6614 13.0384L17.0028 14.5219L15.6614 13.0384ZM25.2367 4.38108L23.8954 2.89754V2.89754L25.2367 4.38108ZM14.7928 11.9997L15.2337 13.9505L15.7452 13.8349L16.1341 13.4833L14.7928 11.9997ZM12.101 12.6081L10.1734 12.0751L9.28289 15.2956L12.542 14.5589L12.101 12.6081ZM12.774 10.1744L11.4327 8.69091L11.0013 9.08092L10.8463 9.64143L12.774 10.1744ZM20.6951 3.01273L22.0364 1.52919L20.6951 0.31647L19.3538 1.52919L20.6951 3.01273ZM22.7139 4.838L24.0552 6.32154L25.696 4.838L24.0552 3.35447L22.7139 4.838ZM24.2273 3.46844L25.5686 4.95198L25.5686 4.95198L24.2273 3.46844ZM23.7233 3.92415L22.382 5.40769L23.7233 6.62041L25.0646 5.40769L23.7233 3.92415ZM21.7045 2.09888L20.3632 0.615346L18.7223 2.09888L20.3632 3.58242L21.7045 2.09888ZM22.2085 1.64317L20.8672 0.159633L20.8672 0.159634L22.2085 1.64317ZM26.579 -0.750961C24.7388 -2.41677 21.6981 -2.41564 19.8578 -0.751791L22.5404 2.21528C22.8584 1.92781 23.5791 1.92894 23.8945 2.21445L26.579 -0.750961ZM19.8578 -0.751791L10.2825 7.90553L12.9651 10.8726L22.5404 2.21528L19.8578 -0.751791ZM10.2825 7.90553C9.92751 8.22649 9.6452 8.65553 9.50701 9.16075L13.3653 10.2161C13.2887 10.4959 13.1378 10.7165 12.9651 10.8726L10.2825 7.90553ZM9.50834 9.15591L8.50027 12.8052L12.3559 13.8703L13.3639 10.221L9.50834 9.15591ZM8.49966 12.8075C8.22751 13.7972 8.57065 14.7935 9.26887 15.4295L11.9626 12.4725C12.307 12.7862 12.508 13.3171 12.3565 13.868L8.49966 12.8075ZM9.27443 15.4346C9.80022 15.91 10.4693 16.1401 11.1198 16.1401V12.1401C11.3976 12.1401 11.7021 12.2369 11.9571 12.4675L9.27443 15.4346ZM11.1198 16.1401C11.319 16.1401 11.5284 16.119 11.7434 16.0693L10.842 12.1722C10.9417 12.1491 11.0358 12.1401 11.1198 12.1401V16.1401ZM11.7336 16.0715L15.7713 15.1589L14.8894 11.2573L10.8518 12.1699L11.7336 16.0715ZM15.7623 15.1609C16.2241 15.0587 16.6521 14.8389 17.0028 14.5219L14.3201 11.5549C14.4884 11.4027 14.6886 11.3017 14.8983 11.2553L15.7623 15.1609ZM17.0028 14.5219L26.578 5.86462L23.8954 2.89754L14.3201 11.5549L17.0028 14.5219ZM26.578 5.86462C27.51 5.02203 28.0732 3.84539 28.0732 2.55581H24.0732C24.0732 2.64548 24.0413 2.76568 23.8954 2.89754L26.578 5.86462ZM28.0732 2.55581C28.0732 1.26733 27.5121 0.0906145 26.5762 -0.753447L23.8972 2.21694C24.0418 2.34732 24.0732 2.46503 24.0732 2.55581H28.0732ZM14.3518 10.0489L11.6601 10.6574L12.542 14.5589L15.2337 13.9505L14.3518 10.0489ZM14.0287 13.1412L14.7016 10.7075L10.8463 9.64143L10.1734 12.0751L14.0287 13.1412ZM14.1153 11.658L22.0364 4.49627L19.3538 1.52919L11.4327 8.69091L14.1153 11.658ZM19.3538 4.49627L21.3726 6.32154L24.0552 3.35447L22.0364 1.52919L19.3538 4.49627ZM21.3726 3.35447L13.4515 10.5162L16.1341 13.4833L24.0552 6.32154L21.3726 3.35447ZM22.886 1.9849L22.382 2.44062L25.0646 5.40769L25.5686 4.95198L22.886 1.9849ZM25.0646 2.44062L23.0458 0.615346L20.3632 3.58242L22.382 5.40769L25.0646 2.44062ZM23.0458 3.58242L23.5498 3.12671L20.8672 0.159634L20.3632 0.615346L23.0458 3.58242ZM23.5498 3.12671C23.3944 3.26722 23.2606 3.27775 23.2179 3.27775C23.1752 3.27775 23.0414 3.26722 22.886 3.12671L25.5686 0.159633C24.8743 -0.468109 24.0006 -0.722249 23.2179 -0.722249C22.4352 -0.722249 21.5615 -0.468109 20.8672 0.159633L23.5498 3.12671ZM22.886 3.12671C22.7628 3.01532 22.6456 2.81086 22.6456 2.55581H26.6456C26.6456 1.60991 26.2307 0.758239 25.5686 0.159633L22.886 3.12671ZM22.6456 2.55581C22.6456 2.30075 22.7628 2.09629 22.886 1.98491L25.5686 4.95198C26.2307 4.35337 26.6456 3.5017 26.6456 2.55581H22.6456Z" mask="url(#path-3-inside-2)"/>
</g>
</svg>
